# xmcd
#
# Track frame offsets:
#	150
#	24838
#	52894
#	77880
#	112015
#	143754
#	174974
#	205193
#	234266
#
# Disc length: 3662 seconds
#
# Revision: 1
# Processed by: cddbd v1.5.2PL0 Copyright (c) Steve Scherf et al.
# Submitted via: audiograbber 1.83.01
#
DISCID=670e4c09
DTITLE=Bob Dylan - Heineken Music Hall April 9 2007
DYEAR=1900
DGENRE=
TTITLE0=Cat압 in the well
TTITLE1=Don앖 think twice it압 alright
TTITLE2=Watching the river flow
TTITLE3=It압 allright ma /I앐 only bleeding)
TTITLE4=Spirit on the water
TTITLE5=High water
TTITLE6=To Ramona
TTITLE7=Rollin아nd tumblin
TTITLE8=Visions of Johanna
EXTD=
EXTT0=
EXTT1=
EXTT2=
EXTT3=
EXTT4=
EXTT5=
EXTT6=
EXTT7=
EXTT8=
PLAYORDER=
